<?xml version="1.0" encoding="utf-8"?>
<!-- Generator: Adobe Illustrator 28.2.0, SVG Export Plug-In . SVG Version: 6.00 Build 0)  -->
<svg version="1.1" xmlns="http://www.w3.org/2000/svg" xmlns:xlink="http://www.w3.org/1999/xlink" x="0px" y="0px"
	 viewBox="0 0 160 160" style="enable-background:new 0 0 160 160;" xml:space="preserve">
<style type="text/css">
	.st0{fill:#FBFFE4;}
	.st1{stroke:#000000;stroke-miterlimit:10;}
	.st2{fill:none;stroke:#000000;stroke-miterlimit:10;}
	.st3{fill:#3D8D7A;}
	.st4{fill:#FBFFE4;stroke:#A3D1C6;stroke-width:3;stroke-miterlimit:10;}
	.st5{fill:#3D8D7A;stroke:#3D8D7A;stroke-miterlimit:10;}
	.st6{fill:#FFFFFF;stroke:#FFFFFF;stroke-miterlimit:10;}
	.st7{fill:none;stroke:#FBFFE4;stroke-width:6;stroke-miterlimit:10;}
	.st8{fill-rule:evenodd;clip-rule:evenodd;fill:#FBFFE4;}
	.st9{fill:#A3D1C6;}
	.st10{fill:none;stroke:#3D8D7A;stroke-width:3;stroke-miterlimit:10;}
	.st11{fill:#243D2A;}
	.st12{fill:none;stroke:#006837;stroke-miterlimit:10;}
	.st13{clip-path:url(#SVGID_00000093169656835256562310000015659088007876968597_);}
	.st14{clip-path:url(#SVGID_00000031909949224770658190000001215987385414790554_);}
	.st15{clip-path:url(#SVGID_00000155824941067505934350000013071566231605769385_);fill:#FFFFFF;}
	.st16{clip-path:url(#SVGID_00000155824941067505934350000013071566231605769385_);}
	.st17{clip-path:url(#SVGID_00000170970187102195313030000001992472493118230414_);fill:#FFCC81;}
	.st18{clip-path:url(#SVGID_00000170970187102195313030000001992472493118230414_);fill:#949390;}
	.st19{clip-path:url(#SVGID_00000170970187102195313030000001992472493118230414_);fill:#3C424C;}
	.st20{clip-path:url(#SVGID_00000170970187102195313030000001992472493118230414_);fill:#FF6B00;}
	.st21{clip-path:url(#SVGID_00000170970187102195313030000001992472493118230414_);enable-background:new    ;}
	.st22{clip-path:url(#SVGID_00000174595863386751838200000013169932921727492537_);}
	.st23{fill:#3D8D7A;stroke:#A3D1C6;stroke-width:3;stroke-miterlimit:10;}
	.st24{fill:#FBFFE4;stroke:#006837;stroke-miterlimit:10;}
	.st25{fill:#FFFFFF;}
	.st26{fill:#ECCA11;stroke:#ECCA11;stroke-width:3;stroke-miterlimit:10;}
	.st27{fill:#ECCA11;}
	.st28{fill:none;stroke:#ECCA11;stroke-width:3;stroke-miterlimit:10;}
	.st29{fill-rule:evenodd;clip-rule:evenodd;fill:#3D8D7A;}
</style>
<g id="Calque_1">
	<g>
		<g>
			<line class="st1" x1="110.8" y1="116.4" x2="42.3" y2="47.9"/>
			<line class="st1" x1="130.5" y1="131.8" x2="26.9" y2="28.2"/>
			<line class="st1" x1="115.1" y1="112.1" x2="46.6" y2="43.6"/>
		</g>
		<circle class="st2" cx="80" cy="80" r="80"/>
		<g>
			<g>
				<g>
					<path d="M79.1,115.1c-2.7,2.7-5.6,4.7-8.8,6.2c-3.2,1.4-6.4,2.2-9.7,2.2s-6.5-0.5-9.7-1.8c-3.1-1.2-6-3.2-8.6-5.8
						c-2.6-2.6-4.5-5.5-5.8-8.6c-1.2-3.1-1.8-6.4-1.7-9.7c0.1-3.3,0.8-6.6,2.3-9.8s3.5-6.1,6.2-8.8c3-3,6.3-5.2,9.8-6.6
						c3.5-1.4,7.1-1.9,10.8-1.6l-0.4,10c-2.5-0.2-4.9,0.1-7,0.9c-2.2,0.8-4.1,2-5.8,3.8c-1.6,1.6-2.8,3.4-3.7,5.3
						c-0.8,1.9-1.2,3.9-1.2,5.8s0.4,3.9,1.2,5.8c0.8,1.9,2,3.7,3.7,5.3c1.7,1.7,3.4,2.9,5.3,3.7s3.9,1.2,5.8,1.2s3.9-0.4,5.8-1.2
						s3.7-2,5.3-3.7c1.7-1.7,3-3.7,3.7-5.9c0.8-2.2,1-4.5,0.8-7.1l10-0.4c0.4,3.7-0.1,7.3-1.5,10.8
						C84.4,108.8,82.1,112.1,79.1,115.1z"/>
				</g>
			</g>
			<g>
				<g>
					<path d="M104.5,86.6c-3.2,1.3-6.5,1.9-9.9,1.7l0.1-6.4c2.8,0.1,5.3-0.3,7.6-1.3c2.3-1,4.5-2.4,6.3-4.3c2-2,3.4-4.1,4.5-6.4
						c1-2.3,1.5-4.7,1.6-7.1c0-2.4-0.4-4.8-1.4-7.1c-1-2.3-2.4-4.4-4.3-6.4c-1.9-1.9-4-3.4-6.4-4.3c-2.3-1-4.7-1.4-7.1-1.4
						s-4.8,0.6-7.1,1.6c-2.3,1-4.5,2.5-6.4,4.5c-1.9,1.9-3.3,4-4.3,6.3c-1,2.3-1.4,4.9-1.4,7.6l-6.4,0.1c-0.2-3.4,0.4-6.7,1.7-9.8
						c1.4-3.2,3.4-6.1,6.1-8.8c2.7-2.7,5.5-4.7,8.7-6c3.1-1.4,6.3-2.1,9.6-2.1c3.3,0,6.4,0.5,9.5,1.8c3.1,1.2,5.9,3.1,8.5,5.7
						c2.6,2.6,4.5,5.4,5.7,8.5c1.2,3.1,1.8,6.2,1.8,9.5c0,3.2-0.7,6.4-2.1,9.5s-3.4,6-6,8.7C110.6,83.2,107.7,85.2,104.5,86.6z"/>
				</g>
			</g>
		</g>
	</g>
</g>
<g id="ai2html-settings">
</g>
</svg>
